<svg width="1920" height="225" viewBox="0 0 1920 225" fill="none" xmlns="http://www.w3.org/2000/svg">
<path d="M1920.02 214.553L0.00012207 214.035V150.213V87.4299V8.17905e-06C0.00012207 8.17905e-06 195.5 112.974 682.5 99.4837C973.484 94.6742 1218.5 72.9017 1392.5 61.7459C1588.36 49.1884 1878.5 44.3636 1920.02 44.3636C1919.14 232.28 1920.02 214.553 1920.02 214.553Z" fill="#F5E0FC"/>
<path d="M1920.02 224.945L0.00012207 224.462V165.094V106.69V25.3604C0.00012207 25.3604 195.5 130.453 682.5 117.903C973.484 113.429 1218.5 93.1759 1392.5 82.7984C1588.36 71.117 1878.5 66.6288 1920.02 66.6288C1919.14 241.435 1920.02 224.945 1920.02 224.945Z" fill="white"/>
</svg>
